<svg version="1.2" xmlns="http://www.w3.org/2000/svg" viewBox="0 0 3000 1000" width="3000" height="1000">
	<style>
		.s0 { fill: #1a1a1a } 
	</style>
	<path id="ADI STUDIO" fill-rule="evenodd" class="s0" d="m200.17 299.33l159.58 373.65q4.45 9.45 8.9 12.79 4.44 3.33 11.12 3.33v5.56h-85.63v-5.56q8.89 0 11.67-4.44 2.78-4.45 0-10.57l-50.04-118.99h-157.91l-45.59 108.43q-3.9 9.45 1.11 17.79 5.56 7.78 20.02 7.78v5.56h-70.62v-5.56q13.34 0.56 24.47-6.67 11.12-7.23 16.12-20.02l152.35-363.08zm-98.42 246.87h150.13l-75.62-177.92zm309.05-241.32h154.02q53.38 0 91.19 16.13 37.81 16.12 62.27 43.37 24.47 27.24 35.59 62.83 11.68 35.03 11.68 72.84 0 37.81-11.68 73.39-11.12 35.03-35.59 62.28-24.46 26.69-62.27 42.81-37.81 16.13-91.19 16.13h-154.02v-5.56q5.56 0 8.34-2.23 3.34-2.78 4.45-6.12 1.67-3.33 1.67-7.78v-346.4q0-4.45-1.67-7.79-1.11-2.78-4.45-5-2.78-2.78-8.34-2.78zm66.17 380.88h79.51q31.14 0 58.94-11.68 27.8-12.23 48.93-35.59 21.13-23.35 33.36-57.82 12.79-35.03 12.79-80.63 0-45.59-12.79-80.07-12.23-35.02-33.36-58.38-21.13-23.91-48.93-35.58-27.8-12.24-58.94-12.24h-80.07zm412.9-380.87v6.11q-5 0-8.34 2.78-2.78 2.23-3.89 5.01-1.67 3.33-1.67 7.78v346.41q0 4.44 1.67 7.78 1.11 3.34 3.89 6.12 3.34 2.22 8.34 2.22v5.56h-80.07v-5.56q5.56 0 8.34-2.22 3.34-2.78 4.45-6.12 1.67-3.34 1.67-7.78v-346.41q0-4.45-1.67-7.78-1.11-2.78-4.45-5.01-2.78-2.78-8.34-2.78v-6.11zm362.17 169.58q25.02 11.68 47.26 22.25 22.24 10.56 39.48 23.9 17.23 13.35 27.24 31.14 10.01 17.79 10.01 43.37 0 51.16-37.25 78.4-37.26 27.25-102.87 27.25-29.47 0-51.71-6.12-21.68-6.67-37.25-15.01-15.01-8.9-24.47-17.24-9.45-8.9-13.34-12.79l-6.67-67.83h6.11q7.79 32.25 20.58 53.93 13.34 21.13 30.02 33.92 16.68 12.23 36.14 17.24 20.02 5 41.7 5 43.37 0 67.84-21.13 24.47-21.13 24.47-53.38 0-19.46-11.68-33.91-11.12-15.02-27.8-26.14-16.68-11.12-36.14-19.46-18.91-8.9-35.03-16.12-13.35-6.12-32.81-14.46-18.9-8.9-37.25-22.24-17.8-13.35-30.58-32.25-12.24-19.46-12.24-46.71 0-24.46 8.9-43.92 9.45-19.46 26.69-33.36 17.24-14.46 41.14-21.69 24.47-7.78 54.49-7.78 33.37-1.12 63.39 10.56 30.58 11.68 54.49 34.47l7.23 68.95h-6.12q-11.12-51.15-39.47-77.84-28.36-27.25-78.4-27.25-19.46 0-36.14 5.56-16.13 5.01-28.36 14.46-11.68 9.45-18.35 22.8-6.67 13.34-6.67 30.02 0 18.35 8.34 32.25 8.89 13.35 23.35 23.91 14.46 10.01 32.81 18.91 18.9 8.89 38.92 18.34zm448.22-169.58l5.01 53.37h-5.56q-3.89-18.9-13.9-31.69-10.01-12.79-32.25-12.79h-76.18v359.2q0 4.44 1.67 7.78 1.67 3.34 4.45 6.12 2.78 2.22 8.34 2.22v5.56h-80.07v-5.56q5.56 0 8.34-2.22 2.78-2.78 3.89-6.12 1.67-3.34 1.67-7.78v-359.2h-75.62q-22.24 0-32.8 12.79-10.01 12.79-13.35 31.69h-6.11l5.56-53.37zm273.41 0.55h80.06v5.56q-13.34 0-20.57 4.45-7.23 4.45-10.56 10.01-3.9 6.67-4.45 15.01v210.18q0 35.59-6.67 63.94-6.12 27.8-21.13 47.26-15.02 18.91-40.04 28.92-25.02 10.01-62.83 10.01-27.24 0-52.82-6.68-25.02-7.22-44.48-23.9-18.91-17.24-30.58-45.6-11.12-28.36-11.12-71.17v-226.86q0-4.45-1.67-7.78-1.11-2.78-4.45-5.01-2.78-2.78-8.34-2.78v-6.11h80.07v6.11q-5.01 0-8.34 2.78-2.78 2.23-3.9 5.01-1.66 3.33-1.66 7.78v245.21q0 18.9 3.33 40.03 3.34 21.13 13.9 38.92 11.12 17.8 30.58 29.47 20.02 11.68 52.27 11.68 20.57 0.56 39.48-6.12 18.9-7.22 34.47-20.01 20.57-18.91 27.8-48.38 7.23-30.02 7.23-66.72v-210.18q-0.55-8.34-4.45-15.01-3.33-5.56-10.56-10.01-7.23-4.45-20.57-4.45zm122.13-0.55h154.02q53.38 0 91.19 16.12 37.81 16.13 62.27 43.37 24.47 27.25 35.59 62.83 11.67 35.03 11.67 72.84 0 37.81-11.67 73.4-11.12 35.03-35.59 62.27-24.46 26.69-62.27 42.82-37.81 16.12-91.19 16.12h-154.02v-5.56q5.56 0 8.34-2.22 3.34-2.78 4.45-6.12 1.67-3.34 1.67-7.78v-346.41q0-4.45-1.67-7.78-1.11-2.78-4.45-5.01-2.78-2.78-8.34-2.78zm66.17 380.88h79.51q31.14 0 58.94-11.68 27.8-12.23 48.93-35.58 21.13-23.35 33.36-57.83 12.79-35.03 12.79-80.62 0-45.6-12.79-80.07-12.23-35.03-33.36-58.38-21.13-23.91-48.93-35.59-27.8-12.23-58.94-12.23h-80.07zm412.9-380.88v6.12q-5 0-8.34 2.78-2.78 2.22-3.89 5-1.67 3.34-1.67 7.79v346.4q0 4.45 1.67 7.78 1.11 3.34 3.89 6.12 3.34 2.23 8.34 2.23v5.56h-80.07v-5.56q5.56 0 8.34-2.23 3.34-2.78 4.45-6.12 1.67-3.33 1.67-7.78v-346.4q0-4.45-1.67-7.79-1.11-2.78-4.45-5-2.78-2.78-8.34-2.78v-6.12zm234.42-5.56q53.38 0 89.52 17.24 36.14 17.23 58.38 45.59 22.24 27.8 31.7 63.95 10 36.14 10 73.95 0 37.81-10 73.95-9.46 36.14-31.7 64.5-22.24 27.8-58.38 45.04-36.14 17.23-89.52 17.23-53.38 0-89.52-17.23-36.14-17.24-58.38-45.04-22.24-28.36-32.25-64.5-9.46-36.14-9.46-73.95 0-37.81 9.46-73.95 10.01-36.15 32.25-63.95 22.24-28.36 58.38-45.59 36.14-17.24 89.52-17.24zm0 392.56q62.27 0 98.42-48.93 36.14-49.49 36.14-142.9 0-93.42-36.14-142.35-36.15-49.48-98.42-49.48-31.14 0-56.16 12.79-24.46 12.78-42.26 37.81-17.23 24.46-26.69 60.05-9.45 35.58-9.45 81.18 0 45.59 9.45 81.18 9.46 35.58 26.69 60.6 17.8 24.47 42.26 37.26 25.02 12.79 56.16 12.79z"/>
</svg>